<svg width="36" height="29" viewBox="0 0 36 29" fill="none" xmlns="http://www.w3.org/2000/svg">
<path d="M30.4755 3.2336C28.181 2.18078 25.7205 1.40511 23.1478 0.960848C23.101 0.952274 23.0542 0.973701 23.0301 1.01656C22.7136 1.57938 22.3631 2.31363 22.1176 2.89074C19.3506 2.47649 16.5978 2.47649 13.8875 2.89074C13.642 2.3008 13.2787 1.57938 12.9609 1.01656C12.9367 0.975131 12.8899 0.953704 12.8431 0.960848C10.2719 1.40369 7.81134 2.17936 5.5154 3.2336C5.49553 3.24217 5.47849 3.25647 5.46718 3.27503C0.800088 10.2476 -0.478425 17.0487 0.14877 23.7656C0.151608 23.7984 0.170055 23.8299 0.195597 23.8498C3.27481 26.1111 6.25756 27.484 9.18492 28.3939C9.23177 28.4082 9.28141 28.3911 9.31122 28.3525C10.0037 27.4068 10.621 26.4097 11.1502 25.3612C11.1814 25.2998 11.1516 25.2269 11.0878 25.2026C10.1087 24.8312 9.1764 24.3784 8.27959 23.8641C8.20866 23.8227 8.20298 23.7213 8.26824 23.6727C8.45696 23.5313 8.64573 23.3841 8.82593 23.2356C8.85853 23.2084 8.90397 23.2027 8.9423 23.2198C14.8339 25.9098 21.2123 25.9098 27.0344 23.2198C27.0728 23.2013 27.1182 23.207 27.1522 23.2341C27.3325 23.3827 27.5212 23.5313 27.7113 23.6727C27.7766 23.7213 27.7723 23.8227 27.7014 23.8641C26.8046 24.3884 25.8723 24.8312 24.8918 25.2012C24.8279 25.2255 24.7995 25.2998 24.8308 25.3612C25.3714 26.4083 25.9887 27.4054 26.6683 28.3511C26.6967 28.3911 26.7478 28.4082 26.7946 28.3939C29.7362 27.484 32.7189 26.1111 35.7981 23.8498C35.8251 23.8299 35.8422 23.7998 35.845 23.767C36.5956 16.0016 34.5877 9.2562 30.5223 3.27645C30.5124 3.25647 30.4954 3.24217 30.4755 3.2336ZM12.03 19.6757C10.2562 19.6757 8.7947 18.0473 8.7947 16.0473C8.7947 14.0474 10.2279 12.4189 12.03 12.4189C13.8463 12.4189 15.2937 14.0617 15.2653 16.0473C15.2653 18.0473 13.8321 19.6757 12.03 19.6757ZM23.9921 19.6757C22.2184 19.6757 20.7568 18.0473 20.7568 16.0473C20.7568 14.0474 22.19 12.4189 23.9921 12.4189C25.8084 12.4189 27.2558 14.0617 27.2275 16.0473C27.2275 18.0473 25.8084 19.6757 23.9921 19.6757Z" fill="black"/>
</svg>
